<?xml version="1.0" encoding="UTF-8" standalone="no"?> <svg xmlns="http://www.w3.org/2000/svg" viewBox="0 0 64 64"><defs><style>.cls-1{fill:#35353d;}</style></defs><title>Asset 55</title><g id="Layer_2" data-name="Layer 2"><g id="Layer_1-2" data-name="Layer 1"><path class="cls-1" d="M61.33,34.67a2.66,2.66,0,0,0-2.66,2.66V56A2.68,2.68,0,0,1,56,58.67H8A2.68,2.68,0,0,1,5.33,56V8A2.68,2.68,0,0,1,8,5.33H26.67a2.67,2.67,0,0,0,0-5.33H8A8,8,0,0,0,0,8V56a8,8,0,0,0,8,8H56a8,8,0,0,0,8-8V37.33A2.66,2.66,0,0,0,61.33,34.67Z"/><path class="cls-1" d="M61.33,0H42.67a2.67,2.67,0,1,0,0,5.33H54.9L19.45,40.78a2.67,2.67,0,0,0,3.77,3.77L58.67,9.1V21.33a2.67,2.67,0,1,0,5.33,0V2.67A2.66,2.66,0,0,0,61.33,0Z"/></g></g></svg>